<?xml version="1.0" standalone="no"?>
<!DOCTYPE svg PUBLIC "-//W3C//DTD SVG 20010904//EN"
 "http://www.w3.org/TR/2001/REC-SVG-20010904/DTD/svg10.dtd">
<svg version="1.0" xmlns="http://www.w3.org/2000/svg"
 width="100.000000pt" height="100.000000pt" viewBox="0 0 100.000000 100.000000"
 preserveAspectRatio="xMidYMid meet">
<metadata>
Created by potrace 1.14, written by Peter Selinger 2001-2017
</metadata>
<g transform="translate(0.000000,100.000000) scale(0.100000,-0.100000)"
fill="#000000" stroke="none">
<path d="M232 815 c-7 -25 -12 -51 -12 -57 0 -15 28 23 51 70 16 31 16 32 -5
32 -17 0 -24 -9 -34 -45z"/>
<path d="M316 806 c-26 -49 -27 -50 -3 -22 14 15 37 39 53 51 l28 23 -25 0
c-20 0 -31 -11 -53 -52z"/>
<path d="M345 779 c-4 -6 -5 -12 -2 -15 2 -3 7 2 10 11 7 17 1 20 -8 4z"/>
<path d="M304 688 c-10 -18 -23 -51 -30 -73 -7 -22 -13 -32 -13 -22 -1 29 -18
19 -25 -15 -9 -48 -5 -157 5 -164 5 -3 9 -13 9 -23 0 -9 7 -26 14 -37 13 -16
13 -12 0 25 -8 24 -13 50 -10 58 3 8 2 12 -3 9 -4 -3 -7 11 -5 32 2 20 3 51 4
67 1 25 3 27 9 10 6 -16 9 -14 14 15 4 18 19 58 33 88 28 59 26 85 -2 30z"/>
<path d="M197 686 c-4 -10 -5 -21 -2 -24 9 -9 17 6 13 25 -3 17 -4 17 -11 -1z"/>
<path d="M342 634 c-1 -44 3 -77 11 -88 12 -16 13 -15 11 6 -1 13 -4 30 -7 38
-4 8 -8 38 -10 65 -3 41 -4 37 -5 -21z"/>
<path d="M450 657 c0 -20 4 -38 9 -42 6 -3 7 10 4 32 -8 50 -13 55 -13 10z"/>
<path d="M427 604 c-4 -4 -7 -17 -7 -28 1 -19 1 -20 11 -3 11 19 8 43 -4 31z"/>
<path d="M142 483 c-17 -60 -40 -141 -51 -180 l-20 -73 79 0 c57 0 78 3 76 13
-3 21 -17 38 -27 32 -5 -4 -9 6 -9 22 0 15 -5 35 -10 43 -8 12 -10 11 -10 -7
0 -12 -4 -25 -10 -28 -13 -8 -12 12 3 100 13 72 25 71 23 -2 -1 -22 2 -39 5
-37 8 5 19 -32 19 -63 0 -14 6 -23 15 -23 19 0 19 20 1 45 -8 11 -12 25 -9 31
2 7 -3 26 -12 43 -9 17 -11 31 -5 31 5 0 10 -5 10 -12 0 -6 3 -9 6 -5 9 8 -42
78 -51 69 -4 -4 -5 2 -2 13 9 35 18 95 14 95 -3 0 -18 -48 -35 -107z"/>
<path d="M536 492 c10 -10 26 -21 34 -24 22 -8 60 9 60 27 0 12 -12 15 -57 15
-55 0 -56 -1 -37 -18z"/>
<path d="M795 500 c3 -5 8 -10 11 -10 2 0 4 5 4 10 0 6 -5 10 -11 10 -5 0 -7
-4 -4 -10z"/>
<path d="M335 490 c3 -5 8 -10 11 -10 2 0 4 5 4 10 0 6 -5 10 -11 10 -5 0 -7
-4 -4 -10z"/>
<path d="M397 479 c7 -7 15 -10 18 -7 3 3 -2 9 -12 12 -14 6 -15 5 -6 -5z"/>
<path d="M709 435 c19 -33 28 -61 24 -72 -4 -12 -3 -15 5 -8 11 11 15 29 13
60 -1 16 -3 17 -10 6 -7 -11 -14 -4 -30 27 -12 23 -24 42 -27 42 -3 0 8 -25
25 -55z"/>
<path d="M530 460 c0 -5 5 -10 11 -10 5 0 7 5 4 10 -3 6 -8 10 -11 10 -2 0 -4
-4 -4 -10z"/>
<path d="M773 445 c-3 -9 -3 -18 -1 -21 3 -3 8 4 11 16 6 23 -1 27 -10 5z"/>
<path d="M651 420 c-1 -8 -10 -33 -21 -55 -11 -22 -19 -45 -20 -51 0 -6 -27
-23 -59 -38 -53 -24 -59 -29 -63 -61 -2 -19 -2 -35 -1 -35 8 0 99 50 115 63
11 8 21 35 25 63 3 27 13 54 21 59 8 7 12 22 9 40 -2 17 -5 23 -6 15z m-68
-160 c-3 -11 -9 -22 -13 -25 -12 -7 -7 29 5 37 14 10 14 10 8 -12z"/>
<path d="M367 333 c4 -11 8 -12 11 -5 2 7 19 12 37 12 27 0 34 -5 38 -22 4
-20 4 -19 6 5 1 26 -1 27 -49 27 -42 0 -48 -2 -43 -17z"/>
<path d="M493 318 c-2 -16 1 -18 10 -9 7 7 8 14 1 21 -6 6 -10 2 -11 -12z"/>
<path d="M708 285 c-18 -37 -24 -42 -36 -32 -8 6 -5 -4 7 -23 23 -38 26 -50
13 -50 -5 0 -16 15 -25 33 l-16 32 6 -35 c13 -77 16 -80 88 -80 36 0 65 4 65
9 0 21 -23 70 -30 66 -5 -3 -14 3 -20 12 -10 16 -10 16 -5 -3 4 -16 0 -23 -15
-27 -21 -5 -28 7 -10 18 13 8 13 62 0 70 -6 4 -6 15 0 30 16 41 1 28 -22 -20z
m9 -37 c-3 -7 -5 -2 -5 12 0 14 2 19 5 13 2 -7 2 -19 0 -25z"/>
<path d="M741 308 c-1 -12 31 -89 35 -85 3 2 -4 24 -15 48 -11 24 -20 41 -20
37z"/>
<path d="M310 265 c0 -19 4 -35 8 -35 4 0 6 16 4 35 -2 19 -6 35 -8 35 -2 0
-4 -16 -4 -35z"/>
<path d="M533 153 c-29 -2 -53 -8 -53 -14 0 -10 89 -13 114 -3 19 7 22 25 4
22 -7 -1 -37 -3 -65 -5z"/>
</g>
</svg>
